# xmcd
#
# Track frame offsets: 
#        150
#        10662
#        26665
#        41337
#        54067
#        66550
#        83182
#        98827
#        114367
#        137025
#
# Disc length: 2014 seconds
#
# Revision: 2
# Processed by: cddbd v1.4PL0 Copyright (c) Steve Scherf et al.
# Submitted via: ExactAudioCopy v0.90b3
#
DISCID=7607dc0a
DTITLE=Eddie Rabbitt - Step By Step
DYEAR=1900
DGENRE=Country
TTITLE0=Early In The Mornin'
TTITLE1=Bring Back The Sunshine
TTITLE2=Skip-A-Beat
TTITLE3=Dim Dim The Lights
TTITLE4=Rivers
TTITLE5=Step By Step
TTITLE6=Someone Could Lose A Heart Tonight
TTITLE7=I Don't Know Where To Start
TTITLE8=Nobody Loves Me Like My Baby
TTITLE9=My Only Wish
EXTD=
EXTT0=
EXTT1=
EXTT2=
EXTT3=
EXTT4=
EXTT5=
EXTT6=
EXTT7=
EXTT8=
EXTT9=
PLAYORDER=
